#!OML:ASF F:\VICON\USERDATA\INSTALL\rory3\rory3.ASF
:FULLY-SPECIFIED
:DEGREES
514
root 0.63165 15.824 -3.25382 341.147 -45.3688 -356.467
lowerback 19.3825 1.1664 -4.55202
upperback 11.5306 0.363451 -0.853663
thorax 1.58503 -0.206919 1.59471
lowerneck -15.7394 -8.29512 -14.8088
upperneck 17.0587 -9.97199 10.3412
head 9.24366 -4.6578 4.64265
rclavicle 4.77083e-015 1.68967e-014
rhumerus -30.2324 24.2944 -90.8066
rradius 89.1511
rwrist 38.9327
rhand -36.2292 15.2565
rfingers 7.12502
rthumb -9.33095 -14.517
lclavicle 4.77083e-015 1.68967e-014
lhumerus -21.8123 -17.4782 85.6597
lradius 66.3998
lwrist -2.48074
lhand -22.3775 18.636
lfingers 7.12502
lthumb 4.04423 48.5774
rfemur -72.7702 -29.1554 24.8124
rtibia 136.632
rfoot 9.80386 1.38568
rtoes 6.12999
lfemur -43.0196 34.7505 -19.1377
ltibia 98.9628
lfoot 0.341786 -3.84508
ltoes -15.3528
515
root 0.632403 15.82 -3.25359 341.157 -45.4625 -356.555
lowerback 19.4201 1.11275 -4.74615
upperback 11.4524 0.261361 -0.746456
thorax 1.48809 -0.268026 1.83621
lowerneck -15.2272 -8.66266 -15.4739
upperneck 17.0613 -10.4621 10.6084
head 9.27551 -4.92005 4.77928
rclavicle 1.72446e-014 5.96354e-015
rhumerus -30.1904 24.4573 -90.7127
rradius 88.7626
rwrist 38.8213
rhand -36.4369 15.8035
rfingers 7.12502
rthumb -9.53136 -13.961
lclavicle 1.72446e-014 5.96354e-015
lhumerus -22.1375 -17.272 85.826
lradius 66.4628
lwrist -2.36493
lhand -22.4511 18.8531
lfingers 7.12502
lthumb 3.97318 48.7958
rfemur -72.9064 -29.6148 24.8258
rtibia 136.943
rfoot 8.5142 1.21512
rtoes 4.7653
lfemur -42.9699 34.8265 -18.9972
ltibia 99.0213
lfoot 0.316172 -3.97464
ltoes -15.1808
516
root 0.633168 15.8151 -3.25558 341.245 -45.5383 -356.806
lowerback 19.5536 1.01014 -4.936
upperback 11.3851 0.0895606 -0.571703
thorax 1.36146 -0.366285 2.15996
lowerneck -15.0312 -8.99538 -16.0508
upperneck 17.3402 -10.8758 10.747
head 9.44067 -5.14505 4.86163
rclavicle -1.48095e-014 -1.31198e-014
rhumerus -30.0862 24.7357 -90.6225
rradius 88.4091
rwrist 39.0365
rhand -36.8072 16.3983
rfingers 7.12502
rthumb -9.88866 -13.3495
lclavicle -1.48095e-014 -1.31198e-014
lhumerus -22.3983 -16.7511 85.9964
lradius 66.4395
lwrist -2.48502
lhand -22.5727 18.9822
lfingers 7.12502
lthumb 3.85575 48.9271
rfemur -72.9993 -29.9525 24.9272
rtibia 137.213
rfoot 7.23131 0.903689
rtoes 5.23989
lfemur -42.919 34.8568 -18.7003
ltibia 99.1072
lfoot 0.289745 -4.13526
ltoes -15.109
517
root 0.632649 15.8094 -3.25745 341.218 -45.5802 -356.924
lowerback 19.6587 0.909991 -5.14793
upperback 11.3156 -0.0815654 -0.455962
thorax 1.2492 -0.462835 2.43424
lowerneck -14.6772 -9.26507 -16.513
upperneck 17.493 -11.2409 10.8494
head 9.52002 -5.34847 4.92321
rclavicle 4.38817e-014 -1.90833e-014
rhumerus -29.9885 24.9958 -90.5831
rradius 88.1314
rwrist 39.4316
rhand -37.2192 16.6261
rfingers 7.12502
rthumb -10.2861 -13.1024
lclavicle 4.38817e-014 -1.90833e-014
lhumerus -22.6885 -16.298 86.1309
lradius 66.4104
lwrist -2.81798
lhand -22.4698 18.9541
lfingers 7.12502
lthumb 3.95514 48.8971
rfemur -72.9361 -30.298 24.8759
rtibia 137.386
rfoot 5.95484 1.27232
rtoes 6.60114
lfemur -42.8105 34.8414 -18.5012
ltibia 99.1834
lfoot 0.283806 -4.22892
ltoes -14.9102
518
root 0.631382 15.8026 -3.26047 341.237 -45.6197 -357.118
lowerback 19.7495 0.809215 -5.23613
upperback 11.2253 -0.232297 -0.379593
thorax 1.11909 -0.539809 2.59405
lowerneck -13.9926 -9.50931 -16.9346
upperneck 17.4053 -11.6229 10.9595
head 9.45819 -5.56643 4.98625
rclavicle 9.92929e-014 -2.76311e-014
rhumerus -29.9966 25.094 -90.6684
rradius 87.9696
rwrist 39.9028
rhand -37.5487 16.5569
rfingers 7.12502
rthumb -10.604 -13.1556
lclavicle 9.92929e-014 -2.76311e-014
lhumerus -23.0648 -16.0688 86.218
lradius 66.495
lwrist -3.03814
lhand -22.5057 18.9027
lfingers 7.12502
lthumb 3.92043 48.8463
rfemur -72.8357 -30.6388 24.9677
rtibia 137.455
rfoot 4.8111 1.79747
rtoes 5.5197
lfemur -42.7163 34.8011 -18.231
ltibia 99.269
lfoot 0.335977 -4.26063
ltoes -14.7997
519
root 0.630343 15.7956 -3.26208 341.226 -45.6911 -357.199
lowerback 19.7449 0.718596 -5.37129
upperback 11.1355 -0.371912 -0.36738
thorax 1.03773 -0.611901 2.70966
lowerneck -13.4635 -9.75316 -17.2821
upperneck 17.5015 -12.0141 11.0569
head 9.4862 -5.78195 5.02891
rclavicle 4.19933e-014 2.78299e-015
rhumerus -30.0041 25.1306 -90.8286
rradius 87.8919
rwrist 40.3191
rhand -37.5029 16.3825
rfingers 7.12502
rthumb -10.5598 -13.3323
lclavicle 4.19933e-014 2.78299e-015
lhumerus -23.4191 -15.8391 86.2309
lradius 66.6082
lwrist -3.11098
lhand -22.8107 18.7621
lfingers 7.12502
lthumb 3.62591 48.711
rfemur -72.894 -30.8881 25.0041
rtibia 137.525
rfoot 3.80214 2.50698
rtoes 2.88727
lfemur -42.6702 34.8041 -18.0786
ltibia 99.3393
lfoot 0.372303 -4.2688
ltoes -15.1501
520
root 0.63072 15.792 -3.26182 341.117 -45.8339 -357.158
lowerback 19.7177 0.700615 -5.48953
upperback 11.1138 -0.414845 -0.401771
thorax 1.03373 -0.637719 2.74752
lowerneck -13.131 -10.0606 -17.5175
upperneck 17.6596 -12.4801 11.0969
head 9.57337 -6.02342 5.01437
rclavicle 7.35503e-014 -1.03368e-014
rhumerus -29.8827 25.0778 -90.9177
rradius 87.8699
rwrist 40.5296
rhand -37.3593 15.9604
rfingers 7.12502
rthumb -10.4213 -13.7613
lclavicle 7.35503e-014 -1.03368e-014
lhumerus -23.5972 -15.6851 86.1952
lradius 66.6692
lwrist -3.2527
lhand -22.8978 18.5204
lfingers 7.12502
lthumb 3.54182 48.4707
rfemur -72.9363 -30.9759 24.8743
rtibia 137.564
rfoot 3.14157 3.238
rtoes 1.60079
lfemur -42.5345 34.874 -17.9808
ltibia 99.3679
lfoot 0.368363 -4.22311
ltoes -15.5056
521
root 0.6319 15.788 -3.26456 340.976 -45.9858 -357.102
lowerback 19.7811 0.693593 -5.65992
upperback 11.0835 -0.45896 -0.415562
thorax 0.976522 -0.666015 2.83809
lowerneck -12.5758 -10.3417 -17.7307
upperneck 17.5271 -12.9211 11.1032
head 9.51187 -6.26023 4.99406
rclavicle -1.02473e-013 3.63776e-014
rhumerus -29.7501 25.1743 -90.9762
rradius 87.913
rwrist 40.398
rhand -37.0844 15.3122
rfingers 7.12502
rthumb -10.1561 -14.4227
lclavicle -1.02473e-013 3.63776e-014
lhumerus -23.7754 -15.4525 86.1823
lradius 66.7229
lwrist -3.42505
lhand -22.5855 18.4764
lfingers 7.12502
lthumb 3.84341 48.4215
rfemur -73.0133 -30.9637 24.8919
rtibia 137.534
rfoot 2.96749 3.79168
rtoes 0.935577
lfemur -42.382 34.9531 -17.8577
ltibia 99.3686
lfoot 0.436171 -4.19359
ltoes -15.7347
522
root 0.63314 15.7845 -3.26789 340.848 -46.104 -357.064
lowerback 19.8559 0.654919 -5.91271
upperback 11.0102 -0.557414 -0.368615
thorax 0.875195 -0.72421 3.05075
lowerneck -11.9354 -10.5859 -18.1235
upperneck 17.4162 -13.3131 11.192
head 9.4557 -6.48235 5.04354
rclavicle 1.0635e-014 3.85642e-014
rhumerus -29.7993 25.4288 -90.9933
rradius 88.064
rwrist 40.0988
rhand -36.611 14.9868
rfingers 7.12502
rthumb -9.69933 -14.7699
lclavicle 1.0635e-014 3.85642e-014
lhumerus -24.0894 -15.0751 86.2934
lradius 66.8378
lwrist -3.50158
lhand -22.5544 18.7763
lfingers 7.12502
lthumb 3.8734 48.7208
rfemur -73.0894 -30.992 25.065
rtibia 137.449
rfoot 2.99673 4.31175
rtoes 0.699906
lfemur -42.2364 34.9768 -17.7159
ltibia 99.3574
lfoot 0.537172 -4.23595
ltoes -15.765
